# xmcd
#
# Track frame offsets:
#	150
#	17247
#	33885
#	50636
#	69504
#	87414
#	102954
#	119902
#	138000
#	155199
#	171434
#	184785
#	198966
#	215109
#	231985
#	252148
#	269516
#	285332
#	302598
#	316784
#
# Disc length: 4469 seconds
#
# Revision: 0
# Processed by: cddbd v1.5.2PL0 Copyright (c) Steve Scherf et al.
# Submitted via: audiograbber 1.83.01
#
DISCID=28117314
DTITLE=Various Artist - Big Tunes Back to the 90s 2 CD1
DYEAR=1900
DGENRE=Pop
TTITLE0=Adamski - Killer
TTITLE1=Snap - Rhythm Is A Dancer
TTITLE2=Livin' Joy - Dreamer
TTITLE3=Baby D - I Need Your Loving (Everybody's Got To Learn Sometime)
TTITLE4=Sonique - It Feels So Good
TTITLE5=Wamdue Project - King Of My Castle
TTITLE6=Crystal Waters - Gypsy Women (La Da Dee La Da Da)
TTITLE7=Dr Alban - It's My Life
TTITLE8=Bizarre Inc - I'm Gonna Get You
TTITLE9=Technotronic - Pump Up The Jam
TTITLE10=Haddaway - Life
TTITLE11=JX - Son Of A Gun
TTITLE12=Todd Terry - Something's Goin' On
TTITLE13=Maxx - Get A Way
TTITLE14=Cappella - U Got 2 Know
TTITLE15=Alex Party - Don't Give Me Your Life
TTITLE16=Urban Cookie Collective - Feels Like Heaven
TTITLE17=Mousse T vs Hot 'n' Juicy - Horny
TTITLE18=Gusto - Disco's Revenge
TTITLE19=Jungle Brothers - Jungle Brother
EXTD=Universal Music TV  - DANCENCD02
EXTT0=
EXTT1=
EXTT2=
EXTT3=
EXTT4=
EXTT5=
EXTT6=
EXTT7=
EXTT8=
EXTT9=
EXTT10=
EXTT11=
EXTT12=
EXTT13=
EXTT14=
EXTT15=
EXTT16=
EXTT17=
EXTT18=
EXTT19=
PLAYORDER=
